<svg width="261" height="58" viewBox="0 0 261 58" fill="none" xmlns="http://www.w3.org/2000/svg">
<path d="M8.55847 37.7672V40.0194L20.6646 42.1418L22.7544 35.4716L37.1376 23.185L40.0345 15.2009L31.7619 3.85284L19.1514 1.73053L9.94204 4.77688L5.71929 8.96387L3.75925 17.2656L8.54407 30.9237L8.3567 37.2185" fill="url(#paint0_linear_858_1163)"/>
<path d="M11.0224 38.1426C13.0977 32.7862 9.56674 27.7329 7.4914 22.9829C6.32402 20.7162 5.89165 18.1463 6.22313 15.6197C6.74196 13.2952 7.9814 11.1873 9.75408 9.57026C14.0489 5.75869 20.0155 4.37268 25.5785 5.88864C31.1993 7.20248 36.1714 10.8119 38.0018 16.0528C38.5206 17.511 38.6647 19.0703 38.4485 20.6007L38.3188 21.0339C38.3621 20.8317 38.3621 20.8461 38.3188 21.0916L38.1891 21.5247C37.9441 22.2033 38.4341 21.0916 38.0594 21.7702L37.6126 22.5209L37.1659 23.0263C35.3644 24.9032 33.3034 26.5202 31.0551 27.8196C26.3856 30.8082 20.2749 34.6775 20.837 40.9724C20.8946 41.9686 21.6585 42.5317 22.6097 41.9686C23.6617 41.3478 24.2959 40.236 24.3103 39.0377C24.3103 38.8211 24.3103 38.619 24.2526 38.4169C24.195 38.2292 24.3103 37.7383 24.2526 38.1715C24.195 38.6046 24.3103 37.7961 24.3823 37.6084C24.4544 37.4207 24.2526 38.0415 24.44 37.4207C24.6274 36.7999 24.7427 36.7422 24.44 37.2908L24.685 36.7854C24.9877 36.2224 24.3823 37.2186 24.7426 36.6555L25.2471 36.0491C26.4433 34.8796 27.7548 33.8257 29.1528 32.9306C32.6837 30.5628 36.5317 28.4404 39.1836 25.0764C42.0948 20.9472 42.5416 15.5907 40.3798 11.0429C38.045 6.35057 32.309 2.68342 26.8756 1.42733C17.1475 -0.651707 7.31843 4.51706 3.60012 13.6562C2.72098 15.793 2.36068 18.103 2.59128 20.3986C2.90834 22.5931 3.55689 24.7155 4.53692 26.6934C5.41605 28.6858 6.49695 30.6783 7.31844 32.7429C8.18316 34.2877 8.39935 36.0924 7.95257 37.7961C7.3905 39.2976 7.50579 40.0483 8.64435 40.1061C9.7829 40.1638 10.6621 38.9222 10.9791 38.0415V38.0993L11.0224 38.1426Z" fill="white"/>
<path d="M10.014 37.1464C12.0893 31.79 8.55833 26.7367 6.48299 21.9867C5.3012 19.7489 4.84002 17.1934 5.15708 14.6957C5.67592 12.3712 6.91535 10.2633 8.68804 8.64622C12.9828 4.83465 18.9495 3.44864 24.5125 4.96461C30.1332 6.27844 35.1054 9.88785 36.9357 15.1288C37.4546 16.587 37.5987 18.1463 37.3825 19.6767L37.2528 20.1098C37.296 19.9077 37.296 19.9221 37.2528 20.1675L37.1231 20.6007C36.8781 21.2793 37.3681 20.1676 36.9934 20.8462L36.6187 21.467L36.1719 21.9723C34.3704 23.8492 32.3094 25.4662 30.0612 26.7801C25.3916 29.8986 19.2809 33.6958 19.843 40.0051C19.9006 41.0013 20.6645 41.5643 21.6157 41.0012C22.6678 40.3804 23.3019 39.2687 23.3163 38.0704C23.3163 37.8538 23.3163 37.6517 23.2587 37.4496C23.201 37.2619 23.3163 36.771 23.2587 37.2042C23.201 37.6373 23.3163 36.8288 23.3884 36.6411C23.4604 36.4534 23.2587 37.0742 23.446 36.4534C23.6334 35.8326 23.7487 35.7748 23.446 36.3234L23.691 35.8181C23.9937 35.255 23.3884 36.2512 23.7487 35.6881L24.2531 35.0673C25.4493 33.8979 26.7608 32.8439 28.1588 31.9488C31.6897 29.581 35.5377 27.4587 38.1896 24.0947C41.072 19.9077 41.5188 14.5369 39.3858 9.9312C37.1087 5.19561 31.315 1.70166 25.8817 0.445575C16.1535 -1.60459 6.33888 3.57859 2.6638 12.7321C1.77025 14.84 1.39553 17.1212 1.5973 19.4024C1.91436 21.5969 2.57732 23.7193 3.55734 25.6972C4.50854 27.7618 5.5174 29.6821 6.33889 31.7467C7.20361 33.2915 7.4198 35.0962 6.97302 36.7999C6.41095 38.3014 6.52624 39.0521 7.66479 39.1099C8.80335 39.1676 9.68248 37.926 9.99954 37.0453V37.1031L10.014 37.1464Z" fill="#1B1B1C"/>
<path d="M24.2099 44.0332C20.6213 42.4017 16.7444 41.4921 12.7955 41.3478C10.8499 41.1745 8.90425 41.5065 7.11715 42.2862C5.35888 43.3113 4.07621 45.0005 3.5862 46.964C2.44764 50.8333 7.1748 52.4504 10.086 53.0712C12.0749 53.4899 14.107 53.6631 16.1391 53.5765C17.8686 53.692 19.5692 53.1001 20.8663 51.9595C21.9328 50.6457 22.6966 49.1586 21.0536 48.0325C19.3242 47.0507 17.4218 46.4154 15.4473 46.1555C11.0949 45.2892 4.27797 44.4807 1.75586 49.1441C0.574066 50.7756 0.847899 53.0135 2.38999 54.3273C3.78796 55.5978 5.47418 56.5074 7.30452 57.0127C10.8355 58.1389 15.5626 58.6875 18.7765 56.5074C19.3674 56.0454 19.8142 55.4102 20.0448 54.7027C20.1024 54.4573 20.3474 53.4611 19.7998 53.8942C17.4794 55.1647 14.77 55.5689 12.1614 55.0203C9.61044 54.7171 7.16039 53.822 5.02741 52.4071C4.47975 52.0028 3.96091 51.5408 3.51413 51.0355C3.25471 50.7323 3.03853 50.4002 2.88 50.0392L2.75029 49.7938C2.66382 49.3751 2.66382 49.2885 2.75029 49.5484C4.22033 48.5955 5.97861 48.1768 7.73688 48.3645C11.1525 48.249 14.5538 48.7688 17.7677 49.9238C18.5892 50.227 19.7854 50.6745 20.1601 51.483C19.526 50.1692 21.731 49.7361 20.5348 50.2414L20.088 50.3714L18.8918 50.6168C16.903 50.8911 14.8853 50.8767 12.8964 50.5591C10.749 50.3136 4.06181 48.8843 5.33007 45.3182C5.27242 45.5636 5.1427 45.6213 5.38771 45.3759L6.13714 44.8706C6.8001 44.553 7.49188 44.3508 8.21248 44.2497C9.94193 43.9898 11.7146 43.9898 13.4441 44.2497C16.6147 44.5818 19.6989 45.4336 22.5957 46.7475C23.2875 47.0507 24.8008 44.2497 24.1666 44.0043V44.0764L24.2099 44.0332Z" fill="white"/>
<path d="M23.2587 43.0225C19.6701 41.3911 15.7933 40.4815 11.8444 40.3371C9.89873 40.1639 7.95309 40.4959 6.16599 41.2755C4.35007 42.2862 3.053 44.0043 2.5774 46.0112C1.43885 49.8805 6.166 51.4975 9.07724 52.1183C11.0661 52.537 13.0982 52.7103 15.1303 52.6237C16.8598 52.7392 18.5604 52.1616 19.8575 51.021C20.924 49.7072 21.6878 48.2201 20.0448 47.094C18.3154 46.1122 16.413 45.477 14.4241 45.2171C10.0717 44.3508 3.25477 43.5423 0.732656 48.2057C-0.449135 49.8372 -0.175302 52.0894 1.36679 53.3888C2.79359 54.6594 4.4942 55.5834 6.35336 56.0742C9.88432 57.2004 14.6115 57.7491 17.8254 55.569C18.4163 55.1069 18.863 54.4717 19.0936 53.7642C19.1513 53.5188 19.3963 52.5226 18.8486 52.9557C16.5283 54.2262 13.8188 54.6305 11.2102 54.0819C8.63046 53.7932 6.16601 52.898 4.01861 51.4542C3.47095 51.05 2.95211 50.5879 2.50534 50.0826C2.24592 49.7794 2.02973 49.4473 1.8712 49.0864L1.7415 48.841C1.65502 48.4223 1.65502 48.3356 1.7415 48.5955C3.26918 47.7148 5.02745 47.2961 6.78573 47.4116C10.2014 47.2961 13.6026 47.8159 16.8165 48.9709C17.638 49.2741 18.8342 49.7217 19.2089 50.5302C18.5748 49.2163 20.7799 48.7832 19.5837 49.2886L19.1369 49.4184L17.9407 49.6639C15.9518 49.9382 13.9341 49.9238 11.9453 49.6061C9.7402 49.3029 3.05299 47.8592 4.30685 44.3075C4.2492 44.5529 4.11948 44.6107 4.36448 44.3652L5.11392 43.8599C5.77687 43.5423 6.46866 43.3402 7.18926 43.2391C8.91871 42.9792 10.6914 42.9792 12.4209 43.2391C15.5915 43.5712 18.6757 44.423 21.5725 45.7368C22.2643 46.04 23.7776 43.2391 23.1434 42.9936L23.2011 43.0659L23.2587 43.0225Z" fill="#1B1B1C"/>
<path d="M11.656 19.7489C14.0484 22.8963 15.4608 26.6646 15.6914 30.6061C15.8211 32.3531 17.392 32.5985 18.5883 31.5445C19.7845 30.4905 21.5571 27.8629 23.128 26.1159C24.9007 24.2534 26.8031 22.5065 28.8064 20.875C32.5968 17.6266 36.6322 14.6956 41.6764 13.6994C43.1464 13.1508 44.1985 11.8658 44.4579 10.3354C44.7029 9.02157 44.2129 7.77992 42.7573 8.08312C37.396 9.13707 32.7265 12.2557 28.5614 15.6919C26.414 17.4966 24.2666 19.3735 22.321 21.3659C21.2545 22.4198 20.2601 23.546 19.3521 24.7299C18.79 25.6106 18.1559 26.4624 17.4497 27.2421L20.3465 28.1806C20.1159 23.4594 18.5018 18.8971 15.677 15.0855C13.8467 12.8332 10.186 17.9586 11.6993 19.821L11.6416 19.7633L11.656 19.7489Z" fill="white"/>
<path d="M41.9797 7.33234C36.5607 8.3863 31.9488 11.5048 27.7837 14.941C25.6363 16.7457 23.489 18.6226 21.5433 20.615C20.6354 21.5102 19.7706 22.4486 18.9636 23.4304C18.3438 20.1242 16.9315 17.0056 14.8705 14.3202C13.0402 12.0679 9.37951 17.1933 10.8928 19.0558C13.2852 22.2032 14.6832 25.9714 14.9282 29.913C15.0579 31.6599 16.6288 31.9054 17.825 30.8514C19.0212 29.7975 20.7939 27.1698 22.3648 25.4228C24.1375 23.5604 26.0399 21.8134 28.0432 20.1819C31.8335 16.9334 35.8689 14.0026 40.9132 13.0064C42.3832 12.4577 43.4353 11.1728 43.6947 9.64235C43.9397 8.32851 43.4353 7.02915 41.9797 7.33234Z" fill="#A1B025"/>
<path d="M64.9538 26.7511C64.2044 25.4373 62.4317 23.1273 60.7311 23.1273C59.506 23.3294 58.5404 24.2823 58.3387 25.495C58.3387 28.5414 71.5834 26.9244 71.5834 34.0423C71.5834 40.0917 65.2132 43.5856 59.7222 43.5856C54.2312 43.5856 51.8965 40.2216 50.5706 35.7892L56.7533 35.2261C57.8631 36.7998 59.5637 37.8538 61.4805 38.157C63.2532 38.157 64.19 37.2908 64.19 35.847C64.19 32.2953 51.637 36.0346 51.637 28.0506C51.637 21.8712 56.4219 18.4494 62.3596 18.4494C65.5735 18.4494 71.1942 20.9472 71.5689 24.4411C69.4936 25.3651 67.1589 26.0004 64.9538 26.7368V26.7511Z" fill="white"/>
<path d="M74.6098 24.6288C74.5521 23.878 74.5522 23.1273 74.5522 22.3765V21.3226C74.5522 20.8028 74.5521 20.283 74.6098 19.7633L80.9223 19.3301L81.1673 24.1957L74.6098 24.6288ZM74.7972 43.0947L74.6674 27.4442H80.7782L80.9079 42.7193L74.7972 43.0947Z" fill="white"/>
<path d="M95.9259 28.3826C96.9059 29.0323 97.4536 30.144 97.3815 31.3135C97.3815 35.3705 91.9626 36.179 88.864 36.179C88.4893 36.3378 88.1434 36.5688 87.8551 36.8576H87.9128L91.9482 36.6699C95.2341 36.6699 98.8227 37.103 98.8227 41.2178C98.8227 45.3326 93.5191 47.0218 89.5558 47.0218H87.0913C86.9616 45.5203 87.0337 44.0909 86.9616 42.5894L90.1755 42.7193C90.997 42.7193 94.845 42.7194 94.845 41.5355C94.845 40.3516 92.8849 40.4814 92.1932 40.4814C90.1178 40.4814 88.1001 40.9146 86.0104 40.9146C85.7654 40.9146 85.4483 40.9723 85.3186 40.6691C84.0359 40.4093 83.0271 39.3986 82.7965 38.1136C83.0703 36.641 84.0936 35.4138 85.506 34.8651C84.5259 34.0711 83.9927 32.8727 84.0504 31.6166C84.1801 28.3826 86.9472 25.8705 90.2187 26.0004C91.3861 25.986 92.5391 26.2025 93.62 26.6212C95.0612 26.0004 96.1709 24.802 96.6465 23.3149L99.673 24.9897C99.673 25.1341 99.673 25.2785 99.673 25.4229C99.673 26.7944 96.8915 27.9784 95.8827 28.3538L95.9259 28.3826ZM90.6943 28.4981C89.1811 28.4981 88.4893 30.375 88.4893 31.6166C88.4893 32.8583 89.0513 33.869 90.3773 33.869C91.6311 33.8113 92.5967 32.7573 92.5391 31.5156C92.5391 31.4723 92.5391 31.429 92.5391 31.3712C92.5391 29.9996 91.977 28.4981 90.6511 28.4981H90.7087H90.6943Z" fill="white"/>
<path d="M110.423 43.2824C110.423 42.2285 110.481 41.1601 110.481 40.1639C110.481 37.8538 110.668 31.4291 107.267 31.4291C106.733 31.4291 106.2 31.5734 105.753 31.8622L105.307 42.6471L100.32 42.8348L100.507 26.8667L105.869 27.2421C105.84 27.5164 105.811 27.7763 105.811 28.0506C105.811 28.3249 105.811 28.5992 105.869 28.8591C106.82 28.0217 108.074 27.6175 109.342 27.733C112.96 27.6464 115.957 30.4762 116.044 34.0423C116.044 34.2444 116.044 34.4465 116.044 34.6486V42.8204L110.423 43.2536V43.2824Z" fill="white"/>
<path d="M137.865 33.5513C137.115 40.0339 135.905 43.1525 128.598 43.1525C123.943 43.3691 119.749 40.366 118.509 35.9192C118.135 34.8796 117.919 33.7824 117.875 32.6707V19.0125L125.816 18.8826C125.629 22.5065 125.125 26.0581 125.125 29.6676C125.125 31.9776 125.312 37.8394 128.656 37.8394C131.999 37.8394 131.624 24.1813 131.624 21.6835C131.61 20.8461 131.653 20.0231 131.754 19.1857H138.254V29.5377C138.196 30.8804 138.067 32.2086 137.865 33.5369V33.5513Z" fill="white"/>
<path d="M147.074 42.5317V45.0294C147.074 45.8379 147.074 47.2095 147.017 48.2779H140.704V26.0726L146.44 25.8271V27.8196C147.435 27.3576 148.501 27.0977 149.596 27.0688C153.79 27.2565 157.033 30.7793 156.846 34.9229C156.788 40.2793 152.176 43.2247 147.074 42.5317ZM146.815 30.5627V30.4328C146.7 31.1403 146.656 31.8477 146.685 32.5551C146.685 34.8652 146.743 37.1752 146.815 39.4708V39.3409C149.712 38.027 151.412 38.9655 151.412 34.7208C151.412 31.4723 149.769 30.6637 146.8 30.5338L146.815 30.5627Z" fill="white"/>
<path d="M167.568 43.2247C161.457 43.2247 157.912 38.8644 157.912 32.9883C157.912 27.1121 162.509 18.8393 169.903 18.8393C174.688 18.8393 178.348 20.7162 179.429 25.6395C176.849 26.0871 174.226 26.3758 171.603 26.5057C171.474 25.0764 170.724 23.3294 169.024 23.3294C165.68 23.3294 165.305 29.1334 165.305 31.4434C165.305 33.7535 166.055 38.2436 169.398 38.2436C170.854 38.2436 172.684 35.8181 172.684 34.5042C172.713 34.3454 172.656 34.1866 172.555 34.0711C170.84 34.3021 169.11 34.4465 167.381 34.5042L167.828 29.6387L180.813 28.8302C180.986 29.6964 181.072 30.5771 181.058 31.4434C180.928 39.6008 175.264 43.2247 167.568 43.2247Z" fill="white"/>
<path d="M197.588 36.1068C194.504 35.9191 191.477 35.8613 188.379 35.8613H187.687C187.932 37.9837 188.134 39.1676 190.656 39.1676C191.751 39.1965 192.789 38.7345 193.495 37.926L196.017 39.2975C194.461 41.7664 191.622 43.1236 188.696 42.7915C185.223 42.7915 182.009 39.1676 182.009 35.6881C182.009 32.2086 185.914 26.6501 190.339 26.6501C194.763 26.6501 197.603 30.2739 197.603 34.8796C197.631 35.2983 197.631 35.717 197.603 36.1213L197.588 36.1068ZM190.469 29.2489C188.854 29.5377 187.629 30.8659 187.5 32.4974C187.5 32.6418 187.5 32.8006 187.557 32.9305H192.789C192.962 32.5118 193.048 32.0642 193.034 31.6166C193.034 29.9418 191.895 29.2489 190.382 29.2489H190.44H190.469Z" fill="white"/>
<path d="M208.557 43.2824C208.557 42.2285 208.614 41.1601 208.614 40.1639C208.614 37.8538 208.802 31.4291 205.4 31.4291C204.867 31.4291 204.334 31.5734 203.887 31.8622L203.44 42.6471L198.454 42.8348L198.641 26.8667L204.002 27.2421C203.974 27.5164 203.945 27.7763 203.945 28.0506C203.945 28.3249 203.945 28.5992 204.002 28.8591C204.954 28.0217 206.207 27.6175 207.476 27.733C211.093 27.6464 214.091 30.4762 214.177 34.0423C214.177 34.2444 214.177 34.4465 214.177 34.6486V42.8204L208.571 43.2536L208.557 43.2824Z" fill="white"/>
<path d="M216.641 24.6288C216.584 23.878 216.583 23.1273 216.583 22.3765V21.3226C216.583 20.8028 216.584 20.283 216.641 19.7633L222.954 19.3301L223.199 24.1957L216.641 24.6288ZM216.829 43.0947L216.699 27.4442H222.81L222.939 42.7193L216.829 43.0947Z" fill="white"/>
<path d="M239.095 42.344L234.685 42.4739C234.238 42.4739 234.685 42.0408 234.238 41.8531C233.243 42.6039 232.033 43.037 230.765 43.0947C229.813 43.0947 228.862 42.8927 227.983 42.5317C225.144 41.3478 224.956 35.6737 224.956 33.0605C224.956 31.3568 225.057 29.6387 225.259 27.9495H229.986C229.986 30.4473 229.929 32.8729 229.929 35.3128C229.929 37.7528 230.116 39.803 232.508 39.803C233.013 39.803 234.151 39.5575 233.834 38.8068V38.9367C234.339 37.695 234.396 29.6388 234.339 27.964L239.325 28.2094C239.397 32.8872 239.08 37.6228 239.08 42.3728L239.095 42.344Z" fill="white"/>
<path d="M254.227 31.1258C252.324 29.9708 250.148 29.3066 247.914 29.1911C246.848 29.1911 245.637 29.1911 245.637 30.5627C245.637 32.9305 254.083 31.3712 254.083 37.4207C254.083 40.6692 251.186 44.4086 247.712 44.4086C245.637 44.4086 242.726 42.6616 240.896 41.7954L242.164 38.2436C243.85 39.3987 245.796 40.135 247.842 40.366C249.672 40.366 249.73 39.8029 249.73 38.7489C249.73 36.1934 241.587 38.4457 241.587 31.891C241.587 29.3355 243.663 25.6539 246.372 25.1486C246.977 25.0475 247.583 25.0042 248.202 25.0187C250.696 25.0475 253.103 25.9282 255.019 27.5164L254.212 31.1258H254.227Z" fill="white"/>
<path d="M63.9437 25.7549C63.1943 24.441 61.4216 22.1311 59.721 22.1311C58.496 22.3332 57.5304 23.286 57.3286 24.4988C57.3286 27.5452 70.5733 25.9282 70.5733 33.046C70.5733 39.0954 64.2032 42.5894 58.7122 42.5894C53.2212 42.5894 50.8864 39.2109 49.6325 34.7929L55.8153 34.2299C56.9107 35.7892 58.5969 36.8431 60.4848 37.1608C62.1855 37.1608 63.1943 36.2945 63.1943 34.8507C63.1943 31.2991 50.6414 35.0384 50.6414 27.0543C50.6414 20.8749 55.4262 17.4532 61.364 17.4532C64.5779 17.4532 70.1986 19.9509 70.5733 23.4449C68.4259 24.3544 66.2064 25.1196 63.9582 25.7549H63.9437Z" fill="#1B1B1C"/>
<path d="M73.6573 23.6326C73.5997 22.8818 73.5997 22.131 73.5997 21.3803V20.3263C73.5997 19.8066 73.5997 19.2868 73.6573 18.767L79.9698 18.3339L80.2148 23.1994L73.6573 23.6326ZM73.8447 42.0984L73.715 26.4479H79.8257L79.9554 41.723L73.8447 42.0984Z" fill="#1B1B1C"/>
<path d="M94.9159 27.372C95.8959 28.0217 96.4436 29.1334 96.3715 30.3028C96.3715 34.3598 90.9525 35.1683 87.854 35.1683C87.4792 35.3272 87.1334 35.5582 86.8451 35.847H86.9027L90.9381 35.6593C94.2241 35.6593 97.8127 36.0923 97.8127 40.2071C97.8127 44.3219 92.509 46.0111 88.5457 46.0111H86.0813C85.9516 44.5096 86.0236 43.0802 85.9515 41.5787L89.1655 41.7087C89.9869 41.7087 93.835 41.7087 93.835 40.5248C93.835 39.3409 91.8749 39.4708 91.1831 39.4708C89.1078 39.4708 87.0901 39.904 85.0004 39.904C84.7554 39.904 84.4383 39.9617 84.3086 39.6585C83.0115 39.3986 82.0026 38.388 81.772 37.103C82.0459 35.6304 83.0691 34.4032 84.4815 33.8545C83.5015 33.0605 82.9682 31.8621 83.0259 30.606C83.17 27.372 85.9227 24.8598 89.1943 24.9897C90.3616 24.9753 91.5146 25.1918 92.5955 25.6105C94.0367 24.9897 95.1465 23.7914 95.6221 22.3043L98.6486 23.9791C98.6486 24.1234 98.6486 24.2678 98.6486 24.4122C98.7207 25.7838 95.8815 26.9677 94.8726 27.3431L94.9159 27.372ZM89.6843 27.5019C88.171 27.5019 87.4792 29.3788 87.4792 30.6205C87.4792 31.8621 88.0413 32.8728 89.3672 32.8728C90.6211 32.815 91.5867 31.7611 91.529 30.5194C91.529 30.4761 91.529 30.4327 91.529 30.375C91.529 29.0034 90.9525 27.5019 89.6987 27.5019H89.6843Z" fill="#1B1B1C"/>
<path d="M109.414 42.2862C109.414 41.2322 109.472 40.1638 109.472 39.1676C109.472 36.8576 109.659 30.4328 106.258 30.4328C105.724 30.4328 105.191 30.5772 104.744 30.8659L104.298 41.6509L99.3111 41.8386L99.4984 25.8704L104.86 26.2458C104.831 26.5201 104.802 26.78 104.802 27.0543C104.802 27.3286 104.802 27.603 104.86 27.8628C105.811 27.0255 107.065 26.6212 108.333 26.7367C111.95 26.6501 114.948 29.4799 115.035 33.046C115.035 33.2482 115.035 33.4503 115.035 33.6524V41.8241L109.414 42.2573V42.2862Z" fill="#1B1B1C"/>
<path d="M136.856 32.5551C136.106 39.0377 134.896 42.1563 127.589 42.1563C122.934 42.3728 118.74 39.3698 117.5 34.9229C117.126 33.8834 116.924 32.7861 116.866 31.6744V18.0163L124.807 17.8864C124.62 21.5103 124.116 25.0619 124.116 28.6714C124.116 30.9814 124.303 36.8432 127.647 36.8432C130.99 36.8432 130.673 23.1851 130.673 20.6873C130.659 19.8499 130.702 19.0269 130.803 18.1895H137.303V28.5415C137.231 29.8842 137.086 31.2124 136.856 32.5262V32.5551Z" fill="#1B1B1C"/>
<path d="M146.122 41.5354V44.0332C146.122 44.8417 146.122 46.2133 146.064 47.2817H139.694V25.0764L145.43 24.8309V26.8234C146.425 26.3613 147.491 26.1014 148.586 26.0726C152.78 26.2603 156.023 29.7831 155.836 33.9267C155.836 39.3553 151.166 42.2285 146.122 41.5354ZM145.863 29.552V29.4221C145.747 30.1296 145.704 30.837 145.733 31.5444C145.733 33.8545 145.79 36.1646 145.863 38.4602V38.3302C148.759 37.0164 150.46 37.9548 150.46 33.7101C150.402 30.5338 148.759 29.7254 145.79 29.5377H145.848L145.863 29.552Z" fill="#1B1B1C"/>
<path d="M166.616 42.2862C160.505 42.2862 156.959 37.926 156.959 32.0498C156.959 26.1737 161.557 17.8864 168.95 17.8864C173.735 17.8864 177.396 19.7632 178.477 24.6865C175.897 25.1341 173.274 25.4229 170.651 25.5528C170.521 24.1235 169.772 22.3765 168.071 22.3765C164.727 22.3765 164.353 28.1805 164.353 30.4905C164.353 32.8006 165.102 37.2908 168.446 37.2908C169.901 37.2908 171.732 34.8652 171.732 33.5513C171.761 33.3925 171.703 33.2337 171.602 33.1182C169.887 33.3492 168.158 33.4936 166.428 33.5513L166.875 28.6858L179.86 27.8773C180.033 28.7436 180.12 29.6243 180.105 30.4905C179.918 38.6479 174.24 42.2717 166.616 42.2717V42.2862Z" fill="#1B1B1C"/>
<path d="M196.578 35.1106C193.494 34.9229 190.468 34.8651 187.369 34.8651H186.677C186.922 36.9875 187.124 38.1714 189.646 38.1714C190.741 38.2003 191.779 37.7383 192.485 36.9298L195.007 38.3013C193.451 40.7702 190.612 42.1274 187.686 41.7953C184.213 41.7953 181.071 38.1714 181.071 34.6919C181.071 31.2124 184.977 25.6539 189.401 25.6539C193.826 25.6539 196.665 29.2777 196.665 33.8834C196.665 34.3021 196.65 34.7208 196.593 35.1251L196.578 35.1106ZM189.444 28.2527C187.83 28.5414 186.605 29.8697 186.475 31.5012C186.475 31.6456 186.475 31.8044 186.533 31.9343H191.765C191.938 31.5156 192.024 31.0681 192.01 30.6205C192.067 29.0035 190.871 28.2527 189.43 28.2527H189.444Z" fill="#1B1B1C"/>
<path d="M207.561 42.2862C207.561 41.2322 207.619 40.1639 207.619 39.1677C207.619 36.8576 207.806 30.4328 204.405 30.4328C203.872 30.4328 203.339 30.5772 202.892 30.866L202.445 41.6509L197.458 41.8386L197.646 25.8705L203.007 26.2458C202.978 26.5202 202.949 26.78 202.949 27.0544C202.949 27.3287 202.95 27.603 203.007 27.8629C203.958 27.0255 205.212 26.6213 206.48 26.7368C210.098 26.6501 213.096 29.4799 213.182 33.0461C213.182 33.2482 213.182 33.4503 213.182 33.6524V41.8242L207.561 42.2574V42.2862Z" fill="#1B1B1C"/>
<path d="M215.631 23.6326C215.574 22.8818 215.574 22.131 215.574 21.3803V20.3263C215.574 19.8066 215.574 19.2868 215.631 18.767L221.944 18.3339L222.189 23.1994L215.631 23.6326ZM215.819 42.0984L215.689 26.4479H221.814L221.944 41.723L215.819 42.0984Z" fill="#1B1B1C"/>
<path d="M238.143 41.3478L233.733 41.4777C233.287 41.4777 233.733 41.0445 233.287 40.8568C232.292 41.6076 231.081 42.0407 229.813 42.0985C228.862 42.0985 227.911 41.8964 227.032 41.5355C224.192 40.3516 224.005 34.6775 224.005 32.0498C224.005 30.3462 224.106 28.628 224.308 26.9388H228.977C228.977 29.4365 228.92 31.8621 228.92 34.3021C228.92 36.7421 229.107 38.7923 231.499 38.7923C232.004 38.7923 233.142 38.5468 232.825 37.796V37.926C233.33 36.6844 233.387 28.628 233.33 26.9533L238.316 27.1987C238.388 31.8765 238.143 36.6121 238.143 41.3621V41.3478Z" fill="#1B1B1C"/>
<path d="M253.218 30.1295C251.315 28.9745 249.139 28.3103 246.905 28.1948C245.839 28.1948 244.628 28.1949 244.628 29.5664C244.628 31.9342 253.074 30.375 253.074 36.4244C253.074 39.6729 250.177 43.4123 246.703 43.4123C244.628 43.4123 241.717 41.6653 239.887 40.7991L241.155 37.2474C242.841 38.4024 244.787 39.1388 246.833 39.3698C248.664 39.3698 248.721 38.8066 248.721 37.7526C248.721 35.1972 240.578 37.4494 240.578 30.8947C240.578 28.3392 242.654 24.6576 245.363 24.1523C245.968 24.0512 246.574 24.008 247.194 24.0224C249.687 24.0513 252.094 24.9319 254.01 26.5201L253.203 30.1295H253.218Z" fill="#1B1B1C"/>
<path d="M260.986 20.3408C261.029 21.8568 259.804 23.1129 258.276 23.1562C256.748 23.1995 255.466 21.9867 255.437 20.4708C255.394 18.9548 256.619 17.6987 258.146 17.6554C258.175 17.6554 258.19 17.6554 258.219 17.6554C259.717 17.6121 260.957 18.796 261 20.2686C261 20.2975 261 20.3119 261 20.3408H260.986ZM256.057 20.3408C256.028 21.4958 256.95 22.4488 258.118 22.4921C259.285 22.521 260.251 21.6113 260.294 20.4563C260.294 20.413 260.294 20.3841 260.294 20.3408C260.294 19.1858 259.343 18.2474 258.175 18.2474C257.008 18.2474 256.057 19.1858 256.057 20.3408ZM257.757 21.7702H257.123V19.0847H258.19C258.521 19.0558 258.853 19.1136 259.141 19.2724C259.299 19.4168 259.4 19.6189 259.386 19.8355C259.357 20.1531 259.126 20.3986 258.824 20.4563C259.112 20.5718 259.299 20.8317 259.328 21.1349C259.357 21.3659 259.415 21.6113 259.516 21.8135H258.824C258.723 21.5969 258.665 21.3659 258.636 21.1349C258.579 20.8317 258.449 20.7017 258.074 20.7017H257.772V21.7558L257.757 21.7702ZM257.757 20.2686H258.06C258.435 20.2686 258.694 20.1387 258.694 19.8932C258.694 19.6478 258.507 19.4601 258.132 19.4601H257.757V20.2686Z" fill="#1B1B1C"/>
<defs>
<linearGradient id="paint0_linear_858_1163" x1="6.92361" y1="36.4145" x2="36.7646" y2="6.7924" gradientUnits="userSpaceOnUse">
<stop stop-color="white"/>
<stop offset="0.3445" stop-color="#FFF1BA"/>
<stop offset="0.84" stop-color="#FFEC63"/>
</linearGradient>
</defs>
</svg>
